<svg width="50" height="50" viewBox="0 0 87 45" fill="none" xmlns="http://www.w3.org/2000/svg">
<path fill-rule="evenodd" clip-rule="evenodd" d="M27.1235 9.71484C29.9382 10.9943 34.0324 11.2501 36.5912 9.45896C37.3588 9.20307 38.3824 9.45896 38.3824 9.45896C38.8941 9.20307 39.15 8.94719 39.6618 9.20307C40.4294 9.71484 40.9412 9.45896 41.7088 9.45896C42.4765 9.20307 42.9882 9.20307 43.7559 9.45896C44.5235 9.20307 45.0353 9.20307 45.8029 9.45896C46.3147 9.45896 47.0824 9.71484 47.5941 9.45896C48.1059 9.45896 48.3618 9.45896 48.6176 9.71484C50.1529 9.20307 51.4324 9.97072 52.7118 10.4825C53.9912 10.9943 55.2706 11.7619 56.8059 11.2501C64.9941 9.97072 70.3677 2.29425 78.5559 0.758958C81.1147 0.247193 83.9294 -0.00868955 86.2324 0.758958C87 0.758958 87 1.5266 87 2.03837C86.2324 3.0619 85.2088 3.0619 83.9294 3.0619C83.4176 3.0619 82.9059 3.0619 82.1382 3.0619C79.5794 3.31778 77.0206 4.08543 74.7177 5.36484C69.8559 8.17955 65.7618 13.5531 60.1324 15.3443C61.1559 17.3913 65.25 16.6237 63.7147 19.6943C61.6676 21.4854 58.3412 21.4854 55.7824 20.4619C55.0147 20.206 54.5029 19.4384 53.4794 19.4384C52.9676 20.206 53.4794 20.9737 53.2235 21.7413C52.7118 27.1148 47.0824 30.6972 49.1294 36.3266C49.3853 37.3501 50.1529 38.6295 49.8971 39.3972C49.6412 40.4207 49.3853 40.6766 49.1294 41.956C48.6176 42.7237 47.5941 44.0031 46.5706 44.259C45.5471 44.5148 44.5235 44.5148 43.2441 44.5148H43.5C42.4765 44.5148 41.7088 44.259 40.6853 44.0031C39.6618 43.4913 38.3824 42.2119 38.3824 41.7001C38.1265 39.1413 37.3588 39.6531 37.3588 38.8854C37.6147 36.8384 38.8941 35.0472 38.3824 33.0001C37.6147 28.1384 33.7765 24.8119 34.0324 19.6943C34.0324 19.4384 33.5206 19.1825 33.2647 19.4384C31.2176 20.4619 28.4029 21.7413 25.8441 20.206C24.8206 19.9501 23.5412 19.4384 23.2853 18.4148C23.2853 16.6237 25.3324 16.8795 26.6118 16.1119C27.1235 15.856 27.8912 15.3443 27.6353 15.0884C18.4235 12.2737 12.2824 1.01484 1.02353 2.55013C0.511765 2.55013 0.255882 2.03837 0 1.78249C0 1.27072 0.511765 0.758958 0.767647 0.758958C3.83824 -0.520454 7.67647 -0.00868978 10.7471 1.01484C16.6324 2.80602 21.75 6.90013 27.1235 9.71484Z" fill="white"/>
</svg>
