<svg width="44" height="51" viewBox="0 0 44 51" fill="none" xmlns="http://www.w3.org/2000/svg">
<path d="M38.8457 0C41.6567 0 43.9522 2.29755 44 5.16375V51L38.5943 46.155L35.552 43.299L32.3337 40.2645L33.6663 44.982H5.15429C3.7991 44.9788 2.4994 44.4357 1.53527 43.4698C0.571143 42.5039 0.0197802 41.1925 0 39.8182L0 5.253C0 2.3766 2.26537 0.04845 5.06629 0H38.8457ZM18.4046 12.189L18.1531 11.883H18.0098C17.3234 11.906 14.2736 12.138 11.088 14.5605L10.9673 14.7951C10.3362 16.0446 7.46743 22.1187 7.46743 29.427L7.51771 29.5111C7.87474 30.0645 10.0798 33.1398 15.136 33.303L15.8777 32.3825L16.8206 31.1865C13.8889 30.2966 12.6318 28.5065 12.4457 28.2183L12.4206 28.1775L12.5237 28.2463C12.6368 28.3228 12.843 28.4503 13.1246 28.611C13.1497 28.6365 13.1749 28.662 13.2251 28.6875C13.3006 28.7385 13.376 28.764 13.4514 28.815C14.08 29.172 14.7086 29.4525 15.2869 29.682C16.3177 30.09 17.5497 30.498 18.9829 30.7785C20.8158 31.1253 22.9554 31.2554 25.2887 30.8423L25.4949 30.804C26.6766 30.6 27.8834 30.243 29.1406 29.7075C30.0206 29.376 31.0011 28.8915 32.032 28.203L31.9918 28.2668C31.7504 28.6238 30.4329 30.3909 27.4811 31.2375L27.896 31.7653C28.5321 32.566 29.1406 33.303 29.1406 33.303C34.6971 33.1245 36.8343 29.427 36.8343 29.427C36.8343 21.216 33.2137 14.5605 33.2137 14.5605C30.101 12.1916 27.1166 11.9161 26.3422 11.8855L26.1486 11.883L25.7966 12.291C29.5881 13.4666 31.5794 15.1037 31.9817 15.4607L32.0571 15.5295C28.2045 13.3745 23.7703 12.5341 19.4103 13.1325C19.2594 13.1325 19.1337 13.158 18.9829 13.1835L18.8421 13.1963C17.8866 13.2957 15.8325 13.6527 13.2754 14.79L12.9109 14.9634C12.4533 15.1827 12.1214 15.3535 11.9429 15.4479L11.792 15.5295C11.792 15.5295 13.8361 13.5558 18.2688 12.2298L18.4046 12.189ZM17.4491 21.3945C18.8823 21.3945 20.0389 22.6695 20.0137 24.225C20.0137 25.7805 18.8823 27.0555 17.4491 27.0555C16.0411 27.0555 14.8846 25.7805 14.8846 24.225C14.8846 22.6695 16.016 21.3945 17.4491 21.3945ZM26.6263 21.3945C28.0594 21.3945 29.1909 22.6695 29.1909 24.225C29.1909 25.7805 28.0594 27.0555 26.6263 27.0555C25.2183 27.0555 24.0617 25.7805 24.0617 24.225C24.0617 22.6695 25.1931 21.3945 26.6263 21.3945Z" fill="black"/>
</svg>
