<svg width="76" height="87" viewBox="0 0 76 87" fill="none" xmlns="http://www.w3.org/2000/svg">
<path d="M66.9842 0C71.8314 0 75.7897 3.91935 75.8721 8.80875V87L66.5507 78.735L61.3046 73.863L55.7551 68.6865L58.053 76.734H8.88787C6.55103 76.7286 4.30987 75.8021 2.64737 74.1544C0.984859 72.5067 0.0341082 70.2696 0 67.9253L0 8.961C0 4.0542 3.90633 0.08265 8.73613 0H66.9842ZM31.7362 20.793L31.3027 20.271H31.0555C29.8719 20.3102 24.6129 20.706 19.1198 24.8385L18.9117 25.2387C17.8234 27.3702 12.8766 37.7319 12.8766 50.199L12.9633 50.3426C13.5789 51.2865 17.3812 56.5326 26.1 56.811L27.379 55.2407L29.0048 53.2005C23.9496 51.6824 21.7818 48.6287 21.461 48.1371L21.4176 48.0675L21.5954 48.185C21.7905 48.3155 22.146 48.533 22.6316 48.807C22.6749 48.8505 22.7183 48.894 22.805 48.9375C22.9351 49.0245 23.0651 49.068 23.1952 49.155C24.2791 49.764 25.363 50.2425 26.3601 50.634C28.1377 51.33 30.2621 52.026 32.7334 52.5045C35.894 53.0961 39.5836 53.318 43.6069 52.6133L43.9625 52.548C46.0002 52.2 48.0812 51.591 50.249 50.6775C51.7664 50.112 53.4573 49.2855 55.2349 48.111L55.1655 48.2198C54.7493 48.8288 52.4775 51.8433 47.3875 53.2875L48.1029 54.188C49.1998 55.5539 50.249 56.811 50.249 56.811C59.8306 56.5065 63.5158 50.199 63.5158 50.199C63.5158 36.192 57.2726 24.8385 57.2726 24.8385C51.9052 20.7974 46.7589 20.3275 45.4235 20.2753L45.0897 20.271L44.4827 20.967C51.0207 22.9724 54.4545 25.7651 55.1482 26.3741L55.2782 26.4915C48.6348 22.8154 40.9887 21.3817 33.4704 22.4025C33.2103 22.4025 32.9935 22.446 32.7334 22.4895L32.4906 22.5113C30.8431 22.6809 27.3009 23.2899 22.8917 25.23L22.263 25.5258C21.474 25.8999 20.9017 26.1914 20.5939 26.3523L20.3337 26.4915C20.3337 26.4915 23.8585 23.1246 31.5021 20.8626L31.7362 20.793ZM30.0887 36.4965C32.56 36.4965 34.5543 38.6715 34.511 41.325C34.511 43.9785 32.56 46.1535 30.0887 46.1535C27.6608 46.1535 25.6664 43.9785 25.6664 41.325C25.6664 38.6715 27.6174 36.4965 30.0887 36.4965ZM45.9135 36.4965C48.3847 36.4965 50.3357 38.6715 50.3357 41.325C50.3357 43.9785 48.3847 46.1535 45.9135 46.1535C43.4855 46.1535 41.4912 43.9785 41.4912 41.325C41.4912 38.6715 43.4422 36.4965 45.9135 36.4965Z" fill="white"/>
</svg>
