<svg width="50" height="50" viewBox="0 0 88 87" fill="none" xmlns="http://www.w3.org/2000/svg">
<path d="M43.4891 28.9938C35.5015 28.9938 28.9829 35.5124 28.9829 43.5C28.9829 51.4876 35.5015 58.0062 43.4891 58.0062C51.4768 58.0062 57.9953 51.4876 57.9953 43.5C57.9953 35.5124 51.4768 28.9938 43.4891 28.9938ZM86.9968 43.5C86.9968 37.4929 87.0512 31.5403 86.7138 25.5441C86.3765 18.5794 84.7877 12.3982 79.6947 7.30529C74.5909 2.20147 68.4206 0.623531 61.4559 0.286178C55.4488 -0.051175 49.4962 0.00323689 43.5 0.00323689C37.4929 0.00323689 31.5403 -0.051175 25.5441 0.286178C18.5794 0.623531 12.3982 2.21235 7.3053 7.30529C2.20147 12.4091 0.623531 18.5794 0.286178 25.5441C-0.051175 31.5512 0.00323689 37.5038 0.00323689 43.5C0.00323689 49.4962 -0.051175 55.4597 0.286178 61.4559C0.623531 68.4206 2.21235 74.6018 7.3053 79.6947C12.4091 84.7985 18.5794 86.3765 25.5441 86.7138C31.5512 87.0512 37.5038 86.9968 43.5 86.9968C49.5071 86.9968 55.4597 87.0512 61.4559 86.7138C68.4206 86.3765 74.6018 84.7876 79.6947 79.6947C84.7985 74.5909 86.3765 68.4206 86.7138 61.4559C87.0621 55.4597 86.9968 49.5071 86.9968 43.5ZM43.4891 65.8197C31.1376 65.8197 21.1694 55.8515 21.1694 43.5C21.1694 31.1485 31.1376 21.1803 43.4891 21.1803C55.8406 21.1803 65.8088 31.1485 65.8088 43.5C65.8088 55.8515 55.8406 65.8197 43.4891 65.8197ZM66.7229 25.4788C63.8391 25.4788 61.5103 23.15 61.5103 20.2662C61.5103 17.3824 63.8391 15.0535 66.7229 15.0535C69.6068 15.0535 71.9356 17.3824 71.9356 20.2662C71.9365 20.951 71.8022 21.6292 71.5406 22.262C71.2789 22.8948 70.895 23.4698 70.4108 23.954C69.9265 24.4382 69.3516 24.8221 68.7188 25.0838C68.0859 25.3454 67.4077 25.4797 66.7229 25.4788Z" fill="white"/>
</svg>
