<svg width="50" height="50" viewBox="0 0 87 87" fill="none" xmlns="http://www.w3.org/2000/svg">
<path d="M17.0487 0C7.67327 0 0 7.6731 0 17.0487V69.954C0 79.3295 7.6731 87 17.0487 87H69.954C79.3296 87 87 79.3296 87 69.954V17.0487C87 7.67327 79.3296 0 69.954 0H17.0487ZM21.3368 14.3568C25.8321 14.3568 28.601 17.3079 28.6865 21.1871C28.6865 24.9806 25.8319 28.0147 21.2498 28.0147H21.1655C16.7557 28.0147 13.9055 24.9808 13.9055 21.1871C13.9055 17.3079 16.8419 14.3568 21.3367 14.3568H21.3368ZM60.0757 32.4876C68.7211 32.4876 75.202 38.1383 75.202 50.2813V72.9503H62.0633V51.8012C62.0633 46.4867 60.1618 42.8608 55.407 42.8608C51.7772 42.8608 49.6136 45.3047 48.6637 47.6655C48.3166 48.5101 48.2313 49.6898 48.2313 50.8713V72.9503H35.0927C35.0927 72.9503 35.2651 37.1243 35.0927 33.4148H48.234V39.0134C49.98 36.3196 53.1031 32.4876 60.0757 32.4876V32.4876ZM14.6804 33.4176H27.8191V72.9505H14.6804V33.4176Z" fill="white"/>
</svg>
