<svg width="50" height="50" viewBox="0 0 207 268" fill="none" xmlns="http://www.w3.org/2000/svg">
<path d="M207 80.9739L206.867 81.1067C200.37 96.5034 193.872 111.767 187.241 127.164C181.805 140.039 176.235 153.047 170.798 165.922C170.268 167.249 170.533 167.116 169.074 167.116C137.912 167.116 106.749 167.116 75.7187 167.116C70.8122 167.116 66.4361 165.391 62.8557 161.94C59.8058 159.02 57.9493 155.436 57.2862 151.321C56.7558 147.737 57.2862 144.154 58.7449 140.835C68.5579 118.935 78.2382 97.0344 88.0511 75.1338C90.7033 69.2937 93.3555 63.4535 95.875 57.6134C98.3945 51.7732 102.24 47.2604 107.147 43.4112C113.777 38.3674 121.07 34.9164 129.027 32.7927C131.944 31.9963 134.994 31.3327 138.177 31.0672C139.768 30.9345 141.359 30.8018 142.951 30.8018C153.294 30.8018 163.637 30.8018 174.113 30.8018C174.379 30.8018 174.644 30.8018 174.776 30.8018V30.9345C174.644 31.0672 174.379 31.2 174.246 31.2C167.881 34.651 161.516 37.9692 155.018 41.4202C152.233 42.8802 149.581 44.7385 147.061 46.7294C138.84 53.1005 132.077 60.6662 126.773 69.6918C125.977 71.1519 125.314 72.7447 124.651 74.2047C116.164 93.0524 107.677 112.033 99.1902 130.881C99.0576 131.146 99.0576 131.412 98.925 131.544C99.4554 131.677 147.724 131.677 148.918 131.544C151.04 126.501 153.161 121.324 155.283 116.015C153.824 115.882 152.498 116.015 151.172 116.015C149.846 116.015 148.52 116.015 147.194 116.015C145.868 116.015 144.542 116.015 143.216 116.015C141.89 116.015 140.564 116.015 139.238 116.015C137.912 116.015 136.585 116.015 135.259 116.015C133.933 116.015 132.607 116.015 131.281 116.015C129.955 116.015 128.629 116.015 127.303 116.015C125.977 116.015 124.651 116.015 123.192 116.015C123.325 115.749 123.325 115.617 123.325 115.484C125.977 109.378 128.629 103.14 131.414 97.0344C135.392 88.4069 142.288 83.2304 151.437 81.2394C153.294 80.8412 155.018 80.7085 156.874 80.7085C173.318 80.7085 189.761 80.7085 206.204 80.7085C206.47 80.9739 206.735 80.8412 207 80.9739Z" fill="white"/>
<path d="M106.616 0.00830078C105.423 0.273762 104.362 0.539231 103.168 0.804693C98.3945 2.132 93.8858 4.12295 89.6424 6.37938C84.7359 9.03399 79.9621 12.0868 75.7186 15.8033C73.8621 17.5288 72.0056 19.2543 70.5469 21.3779C69.8839 22.3071 69.3534 23.2362 68.823 24.1653C62.8557 36.5092 57.1536 48.8532 51.4515 61.3299C48.5341 67.7009 45.6167 73.9393 42.6994 80.3103C42.5668 80.5758 42.4341 80.8413 42.3015 81.2394C50.921 81.2394 59.2753 81.2394 67.8948 81.2394C67.7622 81.5049 67.7622 81.7704 67.6295 82.0358C65.11 87.7433 62.5905 93.4507 60.071 99.2908C57.684 104.866 55.1645 110.307 52.7775 115.882C52.7775 116.015 52.6449 116.148 52.6449 116.28C52.5123 116.546 52.3797 116.679 52.1145 116.546C51.9819 116.546 51.8493 116.546 51.7167 116.546C40.8429 116.546 30.1017 116.546 19.2278 116.546C10.3431 116.546 2.78454 110.307 0.928037 101.68C0.132392 97.8308 0.530206 94.1143 2.1215 90.5306C6.76275 79.7794 11.404 69.0282 16.0453 58.4098C20.9517 47.2604 25.8582 35.9783 30.7647 24.8289C31.9582 22.1743 33.6821 19.7852 35.6712 17.6615C39.119 13.945 43.0972 11.025 47.4732 8.50307C53.7058 4.91935 60.2036 2.53019 67.2317 1.07015C69.4861 0.671958 71.7404 0.406489 73.9947 0.273758C74.2599 0.273758 74.5251 0.14104 74.7903 0.14104C85.5315 0.00830888 96.0075 0.00830078 106.616 0.00830078Z" fill="white"/>
<path d="M0.132738 235.34C0.53056 234.676 0.397956 234.013 0.530564 233.349C0.928386 229.898 1.45882 226.58 1.85664 223.129C2.12185 220.474 2.51967 217.952 2.78489 215.298C3.18271 212.643 3.44793 209.988 3.84575 207.334C4.11096 205.343 4.37618 203.485 4.50879 201.494C4.64139 200.432 4.77399 200.166 5.96745 200.166C7.69135 200.166 9.41526 200.166 11.1392 200.166C12.0674 200.166 12.2 200.564 12.0674 201.228C11.537 205.21 11.0065 209.192 10.4761 213.307C9.94569 217.023 9.54787 220.739 9.15004 224.456C9.01744 225.651 8.88482 226.712 8.75222 227.907C8.61961 228.438 8.88482 228.836 9.41525 228.836C9.68047 228.836 9.94568 228.836 10.0783 228.836C12.9957 228.836 15.7804 228.836 18.6978 228.836C18.8304 228.836 18.8304 228.836 18.963 228.836C20.0238 228.836 20.1565 228.969 20.0238 230.031C19.7586 231.889 19.626 233.614 19.3608 235.473C19.2282 236.136 19.0956 236.402 18.4326 236.402C17.7695 236.402 17.1065 236.402 16.4435 236.402C11.4044 236.402 6.49789 236.402 1.45881 236.402C0.928382 236.402 0.397944 236.402 0.00012207 236.004C0.132729 235.871 0.132738 235.605 0.132738 235.34Z" fill="white"/>
<path d="M190.027 219.678C189.894 220.208 189.894 220.872 189.762 221.403C189.364 224.987 188.833 228.438 188.436 232.021C188.303 233.216 188.17 234.411 188.038 235.605C187.905 236.269 187.773 236.534 186.977 236.534C185.12 236.534 183.131 236.534 181.275 236.534C180.612 236.534 180.347 236.269 180.479 235.605C180.744 233.481 181.01 231.491 181.275 229.367C181.54 226.978 181.805 224.721 182.203 222.332C182.601 219.678 182.866 217.023 183.264 214.368C183.529 212.112 183.794 209.855 184.06 207.732C184.325 205.608 184.59 203.352 184.855 201.228C184.988 200.564 185.253 200.299 185.916 200.299C187.773 200.299 189.762 200.299 191.618 200.299C192.016 200.299 192.281 200.432 192.414 200.83C192.546 201.095 192.546 201.361 192.679 201.626C194.138 206.537 195.464 211.581 196.923 216.492C196.923 216.625 197.055 216.89 197.188 217.023C197.32 216.492 197.32 215.961 197.453 215.43C197.851 212.377 198.249 209.325 198.646 206.272C198.779 204.679 199.044 203.219 199.177 201.626C199.177 201.493 199.177 201.361 199.177 201.361C199.309 200.697 199.575 200.432 200.238 200.432C202.094 200.432 203.951 200.432 205.807 200.432C206.47 200.432 206.735 200.697 206.603 201.361C206.47 202.157 206.47 202.953 206.338 203.75C206.072 206.139 205.807 208.528 205.409 210.785C205.012 213.439 204.746 216.094 204.349 218.748C204.083 220.607 203.951 222.465 203.685 224.323C203.288 227.509 202.89 230.827 202.492 234.012C202.359 234.543 202.359 235.207 202.227 235.738C202.094 236.402 201.962 236.534 201.299 236.534C200.901 236.534 200.37 236.534 199.972 236.534C198.514 236.534 197.188 236.534 195.729 236.534C195.066 236.534 194.933 236.534 194.668 235.871C194.403 235.074 194.138 234.145 193.873 233.216C192.679 228.969 191.353 224.589 190.16 220.341C190.292 220.076 190.16 219.943 190.027 219.678Z" fill="white"/>
<path d="M64.8452 216.89C64.9778 215.43 65.243 213.838 65.3756 212.378C65.7735 209.723 66.0387 207.068 66.4365 204.546C66.5691 203.352 66.7017 202.29 66.8343 201.095C66.9669 200.432 67.2321 200.166 67.7626 200.166C69.7517 200.166 71.6082 200.166 73.5973 200.166C74.1277 200.166 74.3929 200.432 74.3929 200.963C74.2603 201.892 74.1277 202.954 74.1277 203.883C73.8625 206.139 73.5973 208.528 73.1995 210.785C72.9343 213.041 72.669 215.298 72.4038 217.554C72.1386 219.545 71.8734 221.536 71.6082 223.527C71.343 225.385 71.0777 227.243 70.8125 229.102C70.5473 231.093 70.2821 232.951 70.0169 234.942C69.8843 236.269 69.7517 236.402 68.4256 236.402C66.8343 236.402 65.1104 236.402 63.5191 236.402C62.7235 236.402 62.5909 236.269 62.4583 235.605C62.0604 234.411 61.7952 233.216 61.3974 232.022C60.3366 228.172 59.1431 224.191 58.0822 220.341C58.0822 220.076 57.9496 219.943 57.817 219.678C57.6844 220.341 57.6844 221.005 57.5518 221.669C57.0213 225.916 56.4909 230.163 55.9605 234.544C55.9605 234.942 55.8279 235.34 55.8279 235.738C55.6953 236.269 55.5627 236.534 54.8996 236.534C54.5018 236.534 54.104 236.534 53.7062 236.534C52.2475 236.534 50.7888 236.534 49.3301 236.534C48.4019 236.534 48.1367 236.402 48.2693 235.34C48.5345 233.349 48.7997 231.491 48.9323 229.5C49.1975 227.243 49.4627 224.854 49.8606 222.598C50.1258 219.943 50.5236 217.421 50.7888 214.767C51.054 212.51 51.3192 210.121 51.7171 207.865C51.9823 205.741 52.2475 203.485 52.5127 201.361C52.6453 200.432 52.9105 200.299 53.8388 200.299C55.5627 200.299 57.2866 200.299 59.0105 200.299C59.8061 200.299 59.9387 200.299 60.2039 201.095C60.6017 202.423 60.9996 203.75 61.3974 205.077C62.4583 208.794 63.5191 212.51 64.58 216.227C64.58 216.492 64.7126 216.625 64.8452 216.89C64.7126 216.89 64.8452 216.89 64.8452 216.89Z" fill="white"/>
<path d="M175.572 221.934C176.898 222.863 177.296 224.19 177.163 225.65C177.163 226.048 177.031 226.579 177.031 226.978C176.633 229.632 176.368 232.287 175.97 234.941C175.837 236.003 175.837 236.401 174.379 236.401C172.787 236.401 171.196 236.401 169.605 236.401C169.472 236.401 169.34 236.401 169.207 236.401C168.677 236.401 168.411 236.003 168.411 235.472C168.544 234.543 168.677 233.747 168.677 232.818C168.942 230.694 169.207 228.703 169.472 226.579C169.605 225.783 169.34 225.517 168.544 225.517C166.953 225.517 165.229 225.517 163.637 225.517C162.974 225.517 162.842 225.65 162.842 226.314C162.444 229.367 162.046 232.419 161.648 235.34C161.516 236.003 161.383 236.269 160.587 236.269C158.731 236.269 156.742 236.269 154.885 236.269C154.09 236.269 153.957 236.136 154.09 235.34C154.355 232.552 154.753 229.898 155.151 227.11C155.548 224.057 155.946 221.137 156.211 218.085C156.609 215.032 157.007 212.112 157.405 209.059C157.67 206.404 158.068 203.75 158.333 201.228C158.333 201.095 158.333 200.962 158.333 200.962C158.466 200.299 158.731 200.033 159.394 200.033C159.792 200.033 160.322 200.033 160.72 200.033C164.698 200.033 168.677 200.033 172.655 200.033C174.113 200.033 175.44 200.431 176.766 201.095C178.489 202.024 179.418 203.484 179.55 205.475C179.55 206.537 179.418 207.599 179.418 208.661C179.153 211.05 178.887 213.439 178.489 215.695C178.357 216.492 178.357 217.288 178.224 218.085C177.959 219.412 177.296 220.474 176.235 221.27C175.97 221.668 175.837 221.801 175.572 221.934ZM166.82 218.085C167.483 218.085 168.279 218.085 168.942 218.085C170.268 218.085 170.4 217.819 170.666 216.625C170.798 214.899 171.063 213.306 171.329 211.581C171.461 210.652 171.594 209.723 171.594 208.793C171.594 208.13 171.461 207.864 170.798 207.864C170.666 207.864 170.533 207.864 170.533 207.864C168.942 207.864 167.35 207.864 165.892 207.864C165.229 207.864 165.096 207.997 164.964 208.661C164.566 211.581 164.168 214.634 163.903 217.554C163.77 218.085 163.903 218.085 164.433 218.217C165.229 218.085 166.024 218.085 166.82 218.085Z" fill="white"/>
<path d="M37.5282 200.166C38.8543 200.166 40.0477 200.166 41.3738 200.166C42.9651 200.166 44.2911 200.83 45.6172 201.759C46.6781 202.555 47.2085 203.75 47.4737 205.077C47.739 206.139 47.6064 207.334 47.4737 208.396C47.0759 211.448 46.6781 214.501 46.2802 217.554C45.8824 221.005 45.4846 224.323 44.9542 227.774C44.8216 228.571 44.689 229.5 44.5564 230.296C44.0259 232.685 42.5672 234.278 40.4455 235.473C39.1195 236.269 37.6608 236.534 36.0695 236.534C33.8152 236.534 31.6935 236.534 29.4391 236.534C28.2457 236.534 27.0522 236.269 25.8587 235.738C23.8696 234.809 22.8088 233.216 22.6761 231.093C22.6761 230.031 22.6762 228.969 22.8088 227.907C23.074 225.252 23.4718 222.598 23.8696 219.943C24.2674 217.289 24.5326 214.634 24.9305 212.112C25.0631 210.652 25.3283 209.192 25.4609 207.599C25.8587 203.219 29.5717 200.83 32.4891 200.564C33.8152 200.432 35.2738 200.432 36.5999 200.432C36.8651 200.166 37.263 200.166 37.5282 200.166ZM33.8152 228.836C34.6108 228.836 35.2739 228.836 36.0695 228.836C36.9978 228.836 37.263 228.571 37.3956 227.642C37.7934 224.854 38.0586 222.067 38.4564 219.279C38.8542 215.828 39.3847 212.51 39.7825 209.059C39.9151 208.13 39.6499 207.732 38.589 207.732C37.6608 207.732 36.7325 207.732 35.9369 207.732C35.4065 207.732 34.876 207.732 34.3456 207.732C33.2847 207.865 33.1521 208.13 33.0195 208.794C32.7543 211.183 32.3565 213.705 32.0913 216.094C31.6935 218.749 31.4282 221.403 31.0304 224.058C30.8978 225.252 30.7652 226.447 30.6326 227.642C30.5 228.571 30.7652 228.836 31.6935 228.836C32.3565 228.836 33.0195 228.836 33.8152 228.836Z" fill="white"/>
<path d="M138.044 236.402C136.718 236.402 135.26 236.534 133.934 236.402C132.475 236.269 131.281 235.738 130.088 234.809C128.497 233.481 127.966 231.756 128.232 229.765C128.364 227.509 128.762 225.385 129.027 223.128C129.292 220.872 129.558 218.616 129.955 216.359C130.353 213.705 130.618 211.05 131.016 208.528C131.149 207.864 131.149 207.201 131.281 206.537C131.812 204.015 133.271 202.29 135.525 201.228C136.851 200.564 138.177 200.299 139.636 200.299C141.89 200.299 144.277 200.299 146.531 200.299C147.99 200.299 149.316 200.697 150.51 201.361C152.101 202.29 152.896 203.75 153.029 205.475C153.162 206.803 153.029 207.997 152.764 209.324C152.499 211.979 152.101 214.634 151.703 217.156C151.305 220.607 150.907 223.925 150.377 227.376C150.244 228.305 150.112 229.234 149.979 230.163C149.449 232.685 147.99 234.411 145.736 235.472C144.41 236.136 142.951 236.402 141.492 236.402C140.431 236.402 139.238 236.402 138.044 236.402ZM139.238 228.836C139.901 228.836 140.431 228.836 141.094 228.836C142.42 228.836 142.686 228.703 142.818 227.243C143.084 224.589 143.481 222.067 143.747 219.412C144.144 215.961 144.675 212.377 145.073 208.926C145.205 208.13 144.807 207.732 144.012 207.732C143.349 207.732 142.686 207.732 142.023 207.732C141.227 207.732 140.431 207.732 139.768 207.732C138.707 207.732 138.442 208.13 138.442 208.926C138.31 210.519 138.044 212.112 137.779 213.705C137.514 215.961 137.249 218.217 136.984 220.474C136.718 222.863 136.321 225.385 136.055 227.774C135.923 228.57 136.188 228.836 136.984 228.836C137.779 228.836 138.575 228.836 139.238 228.836Z" fill="white"/>
<path d="M119.082 236.534C118.153 236.534 117.225 236.534 116.297 236.534C115.501 236.534 115.236 236.269 115.369 235.472C115.501 233.88 115.766 232.42 115.899 230.827C116.032 229.367 116.297 227.774 116.429 226.314C116.429 225.916 116.429 225.783 116.032 225.783C114.175 225.783 112.186 225.783 110.329 225.783C109.932 225.783 109.799 225.916 109.666 226.447C109.401 228.172 109.269 229.765 109.003 231.49C108.871 232.818 108.606 234.145 108.473 235.605C108.34 236.402 108.208 236.534 107.279 236.667C105.953 236.667 104.76 236.667 103.434 236.667C102.903 236.667 102.24 236.667 101.71 236.667C101.047 236.667 100.782 236.401 100.914 235.738C101.047 234.411 101.18 233.216 101.445 231.889C101.71 229.632 101.975 227.243 102.373 224.987C102.638 222.73 102.903 220.474 103.169 218.217C103.434 215.961 103.699 213.572 103.964 211.315C104.362 208.661 104.627 206.006 105.025 203.352C105.158 202.688 105.158 202.024 105.29 201.493C105.423 200.697 105.688 200.564 106.484 200.564C108.34 200.564 110.197 200.564 111.921 200.564C112.849 200.564 112.982 201.095 112.849 201.626C112.584 203.484 112.319 205.343 112.186 207.201C111.921 209.457 111.656 211.581 111.39 213.837C111.258 215.165 111.125 216.359 110.86 217.686C110.86 217.819 110.86 217.819 110.86 217.952C110.86 218.483 110.86 218.616 111.39 218.616C113.247 218.616 114.971 218.616 116.827 218.616C117.358 218.616 117.49 218.483 117.623 217.952C118.153 213.705 118.684 209.457 119.214 205.21C119.347 204.015 119.479 202.821 119.745 201.626C119.877 200.83 120.142 200.697 120.805 200.697C122.662 200.697 124.518 200.697 126.375 200.697C127.038 200.697 127.303 200.962 127.303 201.626C127.171 202.821 127.038 204.148 126.905 205.343C126.64 207.599 126.375 209.988 125.977 212.245C125.712 214.634 125.447 216.89 125.049 219.279C124.784 221.934 124.386 224.456 124.121 227.11C123.723 229.765 123.458 232.42 123.06 235.074C123.06 235.472 122.927 235.738 122.927 236.136C122.795 236.8 122.662 236.932 121.866 236.932C120.938 236.534 120.01 236.534 119.082 236.534Z" fill="white"/>
<path d="M90.3058 225.783C90.0405 225.783 89.7753 225.783 89.6427 225.783C89.1123 225.783 88.4493 225.783 87.9188 225.783C87.1232 225.783 86.858 225.385 86.858 224.589C86.9906 223.792 86.9906 222.996 87.1232 222.332C87.2558 221.403 87.3884 220.341 87.521 219.412C87.521 219.279 87.521 219.014 87.6536 218.881C87.7862 218.35 87.9188 218.35 88.4493 218.35C91.3666 218.35 94.284 218.35 97.0687 218.35C97.334 218.35 97.5992 218.35 97.8644 218.35C98.5274 218.35 98.66 218.616 98.66 219.279C98.5274 220.076 98.3948 221.005 98.3948 221.801C98.1296 223.925 97.8644 225.916 97.5992 228.04C97.3339 230.296 97.0687 232.685 96.6709 234.942C96.6709 235.207 96.6709 235.605 96.5383 235.871C96.4057 236.534 96.1405 236.667 95.61 236.667C95.4774 236.667 95.3448 236.667 95.3448 236.667C90.8362 236.667 86.4602 236.667 81.9515 236.667C80.3602 236.667 78.9015 236.136 77.7081 235.207C76.1168 234.012 75.4537 232.287 75.5863 230.296C75.7189 228.969 75.8516 227.774 75.9842 226.447C76.382 223.394 76.7798 220.208 77.1776 217.156C77.5755 213.572 78.1059 209.988 78.5037 206.405C78.9015 203.219 81.4211 200.564 84.6037 199.901C85.6645 199.635 86.5927 199.635 87.6536 199.635C89.6427 199.635 91.4992 199.635 93.4883 199.635C94.5492 199.635 95.4774 199.768 96.4057 200.166C98.9252 201.095 100.384 202.954 100.384 205.741C100.384 206.803 100.251 207.997 100.119 209.059C100.119 209.457 99.9861 209.723 99.9861 210.121C99.8535 210.652 99.5883 210.917 99.0578 210.917C98.9252 210.917 98.7926 210.917 98.66 210.917C96.9361 210.917 95.3448 210.917 93.6209 210.917C93.4883 210.917 93.3557 210.917 93.2231 210.917C92.6927 210.785 92.4275 210.519 92.4275 209.988C92.4275 209.59 92.5601 209.059 92.5601 208.661C92.5601 208.528 92.5601 208.395 92.5601 208.263C92.5601 207.865 92.4275 207.599 91.8971 207.466C91.7644 207.466 91.4992 207.466 91.3666 207.466C90.0405 207.466 88.5819 207.466 87.2558 207.466C87.1232 207.466 86.8579 207.466 86.7253 207.466C86.0623 207.599 85.7971 207.865 85.7971 208.528C85.3993 211.448 85.134 214.368 84.7362 217.288C84.3384 220.341 83.9406 223.394 83.5428 226.447C83.4102 226.978 83.4102 227.641 83.4102 228.172C83.4102 228.836 83.5428 229.101 84.2058 229.234C84.3384 229.234 84.471 229.234 84.6037 229.234C86.0623 229.234 87.521 229.234 88.8471 229.234C89.5101 229.234 89.9079 228.969 90.0405 228.438C90.0405 227.376 90.1731 226.58 90.3058 225.783Z" fill="white"/>
<path d="M106.219 243.967C106.086 245.427 105.954 246.754 105.688 248.214C104.76 248.214 103.832 248.214 103.036 248.214C102.771 248.878 101.312 262.284 101.312 263.213C102.108 263.213 103.036 263.213 103.964 263.213C103.964 264.673 103.699 266 103.567 267.46C103.036 267.593 94.1515 267.726 93.3558 267.46C93.4884 266.133 93.621 264.673 93.7537 263.346C94.4167 263.346 94.9471 263.213 95.6102 263.213C95.8754 262.151 97.0688 251.267 96.9362 250.604C96.8036 250.869 96.671 251.135 96.5384 251.4C94.8145 255.116 92.958 258.7 91.2341 262.417C91.1015 262.549 90.9689 262.815 90.9689 262.948C90.8363 263.213 90.7037 263.213 90.4385 263.213C89.245 263.213 87.9189 263.213 86.5929 263.213C86.4603 262.948 86.4602 262.815 86.3276 262.549C85.3994 258.833 84.3385 255.249 83.4103 251.533C83.2776 251.267 83.2777 251.002 83.1451 250.736H83.0124C82.482 254.851 82.0842 258.966 81.5538 263.213C82.2168 263.213 82.7472 263.346 83.4103 263.346C83.2776 264.806 83.1451 266.133 83.0124 267.46C82.7472 267.46 82.482 267.46 82.3494 267.46C79.432 267.46 76.5147 267.46 73.7299 267.46C73.4647 267.46 73.3321 267.46 73.0669 267.46C73.1995 266 73.3321 264.673 73.5973 263.213C74.5256 263.213 75.4538 263.213 76.3821 263.213C76.6473 262.417 78.106 248.878 77.9734 248.214C77.1777 248.214 76.2495 248.214 75.3212 248.214C75.4538 246.754 75.5864 245.427 75.719 244.1C76.2495 243.967 85.532 243.834 86.4602 244.1C87.5211 248.082 88.582 252.064 89.5102 256.046H89.6428C89.7754 255.78 89.908 255.647 89.908 255.382C91.6319 251.798 93.2232 248.347 94.9471 244.763C95.3449 243.834 95.2123 243.967 96.2732 243.967C99.1905 243.967 102.241 243.967 105.158 243.967C105.556 243.967 105.821 243.967 106.219 243.967Z" fill="white"/>
<path d="M154.885 251.533C154.488 255.382 153.957 259.231 153.559 263.213C153.957 263.479 154.488 263.346 154.885 263.346C155.283 263.346 155.681 263.346 156.211 263.346C156.211 263.877 156.079 264.408 156.079 264.806C155.946 265.47 155.946 266.266 155.814 266.93C155.814 267.461 155.681 267.593 155.151 267.593C153.427 267.593 151.57 267.593 149.846 267.593C148.52 267.593 147.194 267.593 145.868 267.593C145.603 267.593 145.338 267.593 145.072 267.593C145.072 266.133 145.338 264.806 145.47 263.346C146.398 263.346 147.327 263.346 148.122 263.346C148.388 262.948 149.846 249.276 149.846 248.347C149.051 248.215 148.122 248.347 147.194 248.215C147.194 246.755 147.459 245.427 147.592 243.967C147.857 243.967 148.122 243.967 148.388 243.967C151.172 243.967 153.957 243.967 156.609 243.967C157.14 243.967 157.405 244.1 157.538 244.631C159.394 249.144 161.25 253.524 163.107 258.037C163.24 258.302 163.372 258.568 163.505 258.833C163.77 257.639 163.903 256.577 164.035 255.382C164.168 254.188 164.3 253.126 164.433 251.931C164.566 250.737 164.698 249.675 164.831 248.347C163.903 248.347 163.107 248.347 162.179 248.347C162.311 246.887 162.444 245.56 162.577 244.233C163.107 244.1 172.522 244.1 173.45 244.233C173.318 245.56 173.185 247.02 172.92 248.48C171.992 248.48 171.063 248.48 170.135 248.48C170.003 249.144 170.003 249.807 169.87 250.471C169.605 252.727 169.34 254.984 169.074 257.373C168.809 259.63 168.544 261.753 168.411 264.01C168.279 265.204 168.146 266.266 168.013 267.461C168.013 267.726 167.881 267.992 167.483 267.992C165.892 267.992 164.168 267.992 162.577 267.992C162.179 267.992 162.046 267.726 162.046 267.461C161.118 265.47 160.322 263.479 159.394 261.355C158.068 258.302 156.742 255.382 155.416 252.329C155.283 252.197 155.283 251.931 155.151 251.798C155.018 251.533 154.885 251.533 154.885 251.533Z" fill="white"/>
<path d="M59.4085 263.213C59.2759 264.673 59.1432 266 59.0106 267.328C58.3476 267.46 49.3303 267.46 48.6673 267.328C48.6673 266 48.9325 264.673 49.0651 263.213C49.7281 263.213 50.3911 263.08 51.0542 263.08C50.9216 262.018 50.6564 261.089 50.5238 260.028C50.2585 260.028 49.9933 260.028 49.8607 260.028C48.0042 260.028 46.0151 260.028 44.1586 260.028C43.4956 260.028 43.4956 260.027 43.2303 260.558C42.9651 261.355 42.5673 262.151 42.3021 262.948C42.9651 263.346 43.4956 262.948 44.1586 263.213C44.026 264.54 43.8934 266 43.7608 267.328C43.0977 267.46 33.9478 267.46 33.2848 267.328C33.2848 266.929 33.4174 266.531 33.4174 266.133C33.55 265.337 33.55 264.408 33.6826 263.611C33.6826 263.346 33.8152 263.213 34.213 263.213C34.7435 263.213 35.1413 263.213 35.6717 263.213C36.2022 263.213 36.4674 263.08 36.6 262.549C38.4565 258.169 40.4456 253.656 42.3021 249.276C42.4347 249.011 42.5673 248.613 42.6999 248.214C41.7717 248.214 40.8434 248.214 39.7825 248.214C39.9152 246.754 40.0478 245.427 40.1804 244.1C40.7108 243.967 51.5846 243.834 52.6455 243.967C52.7781 244.631 52.9107 245.294 53.0433 245.958C54.2367 251.533 55.4302 256.975 56.6237 262.549C56.7563 263.213 56.7563 263.213 57.4194 263.213C58.0824 263.213 58.7454 263.213 59.4085 263.213ZM48.1368 248.48C47.739 249.011 44.9542 256.311 44.9542 256.842C45.7499 256.975 49.3303 256.975 49.7281 256.842C49.5955 255.78 48.402 248.878 48.1368 248.48Z" fill="white"/>
<path d="M13.9239 258.568C12.7305 258.435 11.537 258.568 10.3436 258.435C10.4762 256.975 10.6088 255.515 10.874 254.055C14.0566 254.055 17.2391 254.055 20.4217 254.055C20.4217 254.718 20.2891 255.249 20.2891 255.78C20.0239 257.639 19.8913 259.364 19.6261 261.222C19.4935 262.151 19.4935 263.213 19.2282 264.142C18.8304 266.266 17.5044 267.328 15.3826 267.461C15.1174 267.461 14.7196 267.461 14.4544 267.461C11.1392 267.461 7.95661 267.461 4.64143 267.461C4.37621 267.461 3.9784 267.461 3.71318 267.461C1.85668 267.328 0.795815 266.266 0.663208 264.275C0.663208 263.611 0.663216 262.948 0.795823 262.417C1.06104 259.497 1.45886 256.444 1.85669 253.524C1.98929 251.798 2.2545 250.073 2.38711 248.347C2.38711 247.816 2.51971 247.286 2.65232 246.755C3.18275 245.029 4.37623 244.1 6.23273 243.967C6.49795 243.967 6.89577 243.967 7.16098 243.967C10.4762 243.967 13.7914 243.967 17.1065 243.967C17.637 243.967 18.1674 243.967 18.5652 244.1C20.1565 244.365 20.9521 245.427 20.9521 246.887C20.9521 247.949 20.8195 248.878 20.8195 249.94C20.8195 250.338 20.6869 250.869 20.6869 251.267C18.6978 251.267 16.8413 251.267 14.8522 251.267C14.8522 251.002 14.8522 250.869 14.8522 250.604C14.8522 250.338 14.9848 249.94 14.9848 249.675C14.9848 248.878 14.8522 248.613 14.0566 248.613C12.4653 248.613 10.7414 248.613 9.15009 248.613C8.35445 248.613 8.08923 248.878 8.08923 249.542C7.82401 251.931 7.55879 254.453 7.29358 256.842C7.16097 258.169 7.02837 259.629 6.76316 260.957C6.76316 261.222 6.76316 261.488 6.76316 261.753C6.76316 262.417 6.89577 262.682 7.55881 262.682C7.69142 262.682 7.82401 262.682 7.95661 262.682C9.5479 262.682 11.0066 262.682 12.5979 262.682C13.3935 262.682 13.6587 262.417 13.6587 261.62C13.7913 260.691 13.9239 259.762 13.9239 258.833C14.0566 258.966 13.9239 258.833 13.9239 258.568Z" fill="white"/>
<path d="M205.939 251.267C203.95 251.267 202.093 251.267 200.104 251.267C200.104 250.736 200.237 250.206 200.237 249.807C200.369 248.878 200.104 248.746 199.176 248.613C197.585 248.613 195.993 248.613 194.402 248.613C193.606 248.613 193.341 248.878 193.209 249.675C192.811 252.993 192.546 256.311 192.148 259.497C192.015 260.293 192.015 260.957 191.883 261.753C191.883 262.55 192.015 262.815 192.811 262.815C194.402 262.815 196.126 262.815 197.717 262.815C198.513 262.815 198.646 262.55 198.778 261.886C198.911 260.824 199.043 259.762 199.176 258.833C199.176 258.833 199.176 258.833 199.176 258.7C199.043 258.7 198.778 258.568 198.513 258.568C197.85 258.568 197.054 258.568 196.391 258.568C196.126 258.568 195.861 258.568 195.596 258.568C195.728 257.108 195.861 255.648 196.126 254.187C199.309 254.187 202.491 254.187 205.674 254.187C205.541 254.851 205.541 255.515 205.541 256.178C205.276 258.037 205.143 259.762 204.878 261.62C204.745 262.55 204.746 263.479 204.48 264.408C204.082 266.399 202.756 267.461 200.767 267.593C200.502 267.593 200.104 267.593 199.839 267.593C196.524 267.593 193.209 267.593 190.026 267.593C189.363 267.593 188.833 267.593 188.17 267.328C186.976 267.062 186.313 266.266 186.048 264.939C185.915 264.142 186.048 263.346 186.048 262.55C186.313 259.629 186.711 256.577 187.109 253.657C187.241 251.931 187.507 250.206 187.639 248.347C187.772 247.816 187.772 247.153 188.037 246.622C188.567 244.896 189.761 243.967 191.617 243.834C192.015 243.834 192.413 243.834 192.811 243.834C195.993 243.834 199.176 243.834 202.359 243.834C203.022 243.834 203.552 243.834 204.215 243.967C205.541 244.233 206.337 245.162 206.469 246.622C206.469 247.684 206.337 248.878 206.337 249.94C206.072 250.471 205.939 250.869 205.939 251.267Z" fill="white"/>
<path d="M123.458 248.215C122.397 248.215 121.469 248.215 120.408 248.215C120.541 246.755 120.673 245.427 120.806 244.1C121.469 243.967 132.21 243.967 132.74 244.1C132.608 245.029 132.608 245.826 132.475 246.755C132.475 247.02 132.343 247.286 132.343 247.551C132.343 248.215 132.21 248.215 131.547 248.215C131.017 248.215 130.486 248.215 129.956 248.215C129.69 248.215 129.558 248.215 129.16 248.215C128.63 253.126 128.099 258.169 127.569 263.213C128.63 263.213 129.558 263.213 130.619 263.213C130.619 264.673 130.354 266.001 130.221 267.328C129.69 267.461 119.215 267.593 118.286 267.328C118.286 266.001 118.551 264.541 118.684 263.213C119.745 263.213 120.673 263.213 121.734 263.08C122.397 258.169 122.928 253.258 123.458 248.215Z" fill="white"/>
</svg>
