<svg width="50" height="26" viewBox="0 0 50 26" fill="none" xmlns="http://www.w3.org/2000/svg">
<path fill-rule="evenodd" clip-rule="evenodd" d="M15.5882 5.67419C17.2059 6.42147 19.5588 6.57092 21.0294 5.52474C21.4706 5.37529 22.0588 5.52474 22.0588 5.52474C22.3529 5.37529 22.5 5.22583 22.7941 5.37529C23.2353 5.67419 23.5294 5.52474 23.9706 5.52474C24.4118 5.37529 24.7059 5.37529 25.1471 5.52474C25.5882 5.37529 25.8824 5.37529 26.3235 5.52474C26.6176 5.52474 27.0588 5.67419 27.3529 5.52474C27.6471 5.52474 27.7941 5.52474 27.9412 5.67419C28.8235 5.37529 29.5588 5.82365 30.2941 6.12256C31.0294 6.42147 31.7647 6.86983 32.6471 6.57092C37.3529 5.82365 40.4412 1.34001 45.1471 0.443288C46.6176 0.144379 48.2353 -0.00507535 49.5588 0.443288C50 0.443288 50 0.891652 50 1.19056C49.5588 1.78838 48.9706 1.78838 48.2353 1.78838C47.9412 1.78838 47.6471 1.78838 47.2059 1.78838C45.7353 1.93783 44.2647 2.3862 42.9412 3.13347C40.1471 4.77747 37.7941 7.91601 34.5588 8.96219C35.1471 10.1578 37.5 9.70947 36.6176 11.5029C35.4412 12.5491 33.5294 12.5491 32.0588 11.9513C31.6176 11.8018 31.3235 11.3535 30.7353 11.3535C30.4412 11.8018 30.7353 12.2502 30.5882 12.6986C30.2941 15.8371 27.0588 17.9295 28.2353 21.2175C28.3824 21.8153 28.8235 22.5625 28.6765 23.0109C28.5294 23.6087 28.3824 23.7582 28.2353 24.5055C27.9412 24.9538 27.3529 25.7011 26.7647 25.8505C26.1765 26 25.5882 26 24.8529 26H25C24.4118 26 23.9706 25.8505 23.3824 25.7011C22.7941 25.4022 22.0588 24.6549 22.0588 24.356C21.9118 22.8615 21.4706 23.1604 21.4706 22.712C21.6176 21.5164 22.3529 20.4702 22.0588 19.2746C21.6176 16.4349 19.4118 14.492 19.5588 11.5029C19.5588 11.3535 19.2647 11.204 19.1176 11.3535C17.9412 11.9513 16.3235 12.6986 14.8529 11.8018C14.2647 11.6524 13.5294 11.3535 13.3824 10.7556C13.3824 9.70947 14.5588 9.85892 15.2941 9.41056C15.5882 9.2611 16.0294 8.96219 15.8824 8.81274C10.5882 7.16874 7.05882 0.592743 0.588235 1.48947C0.294118 1.48947 0.147059 1.19056 0 1.04111C0 0.742197 0.294118 0.443288 0.441176 0.443288C2.20588 -0.303984 4.41176 -0.00507548 6.17647 0.592742C9.55882 1.63892 12.5 4.0302 15.5882 5.67419Z" fill="black"/>
</svg>
