<svg width="51" height="51" viewBox="0 0 51 51" fill="none" xmlns="http://www.w3.org/2000/svg">
<path fill-rule="evenodd" clip-rule="evenodd" d="M51 25.5C51 39.5833 39.5833 51 25.5 51C11.4167 51 0 39.5833 0 25.5C0 11.4167 11.4167 0 25.5 0C39.5833 0 51 11.4167 51 25.5ZM38.7549 22.0337C40.7922 22.0337 42.4638 23.6755 42.4638 25.7426C42.4638 27.2624 41.552 28.5697 40.2754 29.1478C40.3359 29.5197 40.3664 29.8959 40.3666 30.2726C40.3666 36.0181 33.7087 40.6392 25.5005 40.6392C17.2925 40.6392 10.6346 35.9874 10.6346 30.2726C10.6333 29.8958 10.6638 29.5195 10.7259 29.1478C9.44866 28.5697 8.53684 27.2931 8.53684 25.7733C8.53684 23.7361 10.1784 22.0644 12.2457 22.0644C13.2081 22.063 14.1338 22.4333 14.8298 23.098C17.4136 21.2432 20.9707 20.0579 24.9226 19.936L26.808 11.0592C26.8381 10.8767 26.9291 10.7249 27.0811 10.6337C27.2028 10.5424 27.3853 10.5117 27.5678 10.5424L33.7388 11.8497C34.1643 10.9679 35.0768 10.3599 36.1103 10.3599C37.5696 10.3599 38.7549 11.5455 38.7549 13.0046C38.7549 14.4644 37.5694 15.6498 36.1103 15.6498C34.6811 15.6498 33.5262 14.5248 33.4651 13.1263L27.9322 11.9409L26.2301 19.9059C30.1212 20.0579 33.6175 21.2432 36.1711 23.0675C36.8669 22.4028 37.7926 22.0324 38.7549 22.0337ZM19.6333 25.7426C18.1734 25.7426 16.9881 26.9282 16.9881 28.3872C16.9881 29.8465 18.1736 31.0623 19.6333 31.0325C21.0926 31.0325 22.278 29.8465 22.278 28.3872C22.278 26.928 21.0924 25.7426 19.6333 25.7426ZM25.5005 37.3559C26.5036 37.3559 29.9694 37.2341 31.7934 35.4099C32.0365 35.1364 32.0365 34.7106 31.7934 34.4371C31.5197 34.164 31.0942 34.164 30.8205 34.4371C29.6957 35.5924 27.2335 35.9874 25.5005 35.9874C23.7677 35.9874 21.3356 35.5926 20.1802 34.4371C19.9065 34.164 19.4809 34.164 19.2072 34.4371C18.9341 34.7106 18.9341 35.1364 19.2072 35.4099C21.0014 37.2035 24.467 37.3559 25.5005 37.3559ZM28.6621 28.4179C28.6621 29.8772 29.8475 31.0625 31.3067 31.0625C32.7664 31.0625 33.9518 29.8463 33.9518 28.4179C33.9518 26.9586 32.7664 25.7733 31.3067 25.7733C29.8475 25.7733 28.6621 26.9586 28.6621 28.4179Z" fill="black"/>
</svg>
