<svg width="50" height="50" viewBox="0 0 87 88" fill="none" xmlns="http://www.w3.org/2000/svg">
<path d="M43.4292 0C20.5446 0 1.77334 17.649 0 40.0813L23.3531 49.7435C25.4019 48.3461 27.8248 47.5999 30.3048 47.6024C30.5309 47.6024 30.7597 47.616 30.9858 47.616L41.3725 32.5766V32.3642C41.3725 23.2986 48.7356 15.9356 57.8011 15.9356C66.8667 15.9356 74.2434 23.3122 74.2434 32.3778C74.2376 36.7355 72.503 40.9129 69.4204 43.993C66.3377 47.0731 62.1589 48.8042 57.8011 48.8064H57.4334L42.6201 59.3756C42.6201 59.5745 42.6338 59.7597 42.6338 59.9586C42.6338 66.7686 37.1285 72.2875 30.3184 72.2875C24.3882 72.2875 19.3651 68.0299 18.2156 62.3857L1.50366 55.4612C6.68204 73.764 23.4675 87.1716 43.4292 87.1716C67.4905 87.1716 87 67.6648 87 43.5872C87 19.5095 67.4932 0.00272403 43.4292 0.00272403V0ZM27.2975 66.1421L21.9475 63.9275C22.9328 65.9744 24.6334 67.5897 26.7282 68.4684C28.9956 69.4072 31.5427 69.4087 33.8114 68.4728C36.08 67.5368 37.885 65.7397 38.831 63.4753C39.3003 62.3545 39.5432 61.1519 39.5455 59.9368C39.5478 58.7217 39.3096 57.5181 38.8446 56.3955C38.3859 55.267 37.7066 54.2415 36.8463 53.3789C35.9861 52.5164 34.9624 51.8342 33.8351 51.3724C31.6632 50.4652 29.2263 50.4243 27.0251 51.258L32.544 53.5435C36.0198 55.0036 37.6651 58.9915 36.2187 62.4674C34.7722 65.9433 30.7706 67.5886 27.2948 66.1421H27.2975ZM68.7545 32.3478C68.7516 29.4461 67.5985 26.6638 65.548 24.6107C63.4974 22.5575 60.7165 21.401 57.8148 21.3945C54.9098 21.3945 52.1237 22.5485 50.0696 24.6027C48.0155 26.6568 46.8615 29.4428 46.8615 32.3478C46.8615 35.2528 48.0155 38.0388 50.0696 40.093C52.1237 42.1471 54.9098 43.3011 57.8148 43.3011C60.7172 43.2968 63.4993 42.141 65.5503 40.0874C67.6014 38.0338 68.7537 35.2503 68.7545 32.3478ZM49.6154 32.3342C49.6154 27.7796 53.2902 24.1049 57.8311 24.1049C62.3721 24.1049 66.074 27.7796 66.074 32.3342C66.074 36.8752 62.3721 40.5635 57.8311 40.5635C53.2902 40.5635 49.6154 36.8752 49.6154 32.3342Z" fill="white"/>
</svg>
