<svg width="51" height="51" viewBox="0 0 51 51" fill="none" xmlns="http://www.w3.org/2000/svg">
<path d="M25.4585 0C12.0434 0 1.03955 10.3256 0 23.4497L13.6897 29.1026C14.8908 28.285 16.3111 27.8484 17.7649 27.8499C17.8974 27.8499 18.0316 27.8579 18.1641 27.8579L24.2529 19.0591V18.9348C24.2529 13.6309 28.5691 9.32315 33.8834 9.32315C39.1977 9.32315 43.522 13.6389 43.522 18.9427C43.5186 21.4922 42.5018 23.9362 40.6947 25.7382C38.8876 27.5403 36.438 28.5531 33.8834 28.5543H33.6679L24.9842 34.7379C24.9842 34.8542 24.9922 34.9626 24.9922 35.0789C24.9922 39.0632 21.765 42.292 17.7729 42.292C14.2965 42.292 11.352 39.8011 10.6781 36.4989L0.881458 32.4477C3.91706 43.1558 13.7568 51 25.4585 51C39.5634 51 51 39.5875 51 25.5008C51 11.4141 39.565 0.0015937 25.4585 0.0015937V0ZM16.002 38.6966L12.8658 37.401C13.4433 38.5985 14.4402 39.5435 15.6682 40.0577C16.9974 40.6068 18.4906 40.6078 19.8205 40.0602C21.1503 39.5126 22.2085 38.4612 22.763 37.1364C23.0381 36.4807 23.1805 35.7771 23.1819 35.0662C23.1832 34.3553 23.0436 33.6512 22.771 32.9944C22.5021 32.3341 22.1038 31.7341 21.5996 31.2295C21.0953 30.7248 20.4952 30.3258 19.8344 30.0556C18.5612 29.5248 17.1326 29.5009 15.8423 29.9887L19.0775 31.3258C21.1151 32.18 22.0796 34.5132 21.2316 36.5467C20.3837 38.5803 18.0379 39.5429 16.0004 38.6966H16.002ZM40.3043 18.9252C40.3027 17.2275 39.6267 15.5997 38.4247 14.3985C37.2226 13.1973 35.5924 12.5207 33.8914 12.5169C32.1885 12.5169 30.5553 13.1921 29.3511 14.3939C28.147 15.5956 27.4705 17.2256 27.4705 18.9252C27.4705 20.6248 28.147 22.2547 29.3511 23.4565C30.5553 24.6583 32.1885 25.3335 33.8914 25.3335C35.5928 25.3309 37.2237 24.6547 38.4261 23.4532C39.6284 22.2518 40.3039 20.6233 40.3043 18.9252ZM29.0849 18.9172C29.0849 16.2526 31.2391 14.1027 33.901 14.1027C36.5629 14.1027 38.733 16.2526 38.733 18.9172C38.733 21.5739 36.5629 23.7318 33.901 23.7318C31.2391 23.7318 29.0849 21.5739 29.0849 18.9172Z" fill="black"/>
</svg>
