<svg width="50" height="41" viewBox="0 0 50 41" fill="none" xmlns="http://www.w3.org/2000/svg">
<path d="M50 4.85375C48.1279 5.69062 46.1421 6.23966 44.1087 6.48258C46.2505 5.18948 47.8532 3.15468 48.6182 0.757421C46.6051 1.96335 44.4021 2.81254 42.1049 3.26816C41.1451 2.23518 39.9853 1.4121 38.6973 0.849932C37.4094 0.287762 36.0208 -0.00152277 34.6175 6.02795e-06C28.9528 6.02795e-06 24.3594 4.6336 24.3594 10.3509C24.3594 11.1614 24.4503 11.9522 24.6257 12.7103C16.1 12.2785 8.54188 8.15728 3.48233 1.8942C2.57008 3.47393 2.09072 5.27011 2.09343 7.09847C2.09208 8.80266 2.50794 10.4808 3.30406 11.9838C4.10018 13.4868 5.2519 14.768 6.65688 15.7137C5.02818 15.6615 3.43538 15.2177 2.01096 14.4191C2.00966 14.4623 2.00966 14.5049 2.00966 14.5494C2.00966 19.5631 5.54524 23.7465 10.2373 24.6985C8.72645 25.1112 7.14239 25.1717 5.60498 24.8754C6.91012 28.9868 10.6983 31.9805 15.1871 32.0643C11.5534 34.9417 7.06629 36.5024 2.44731 36.4955C1.61942 36.4955 0.803216 36.447 0 36.3507C4.69029 39.3916 10.149 41.0056 15.7241 41C34.5922 41 44.9099 25.2286 44.9099 11.5519C44.9099 11.1037 44.8995 10.6562 44.8801 10.2113C46.8894 8.74755 48.6233 6.93316 50 4.85375Z" fill="black"/>
</svg>
