<svg width="86" height="70" viewBox="0 0 86 70" fill="none" xmlns="http://www.w3.org/2000/svg">
<path d="M85.6169 8.2367C82.4112 9.65684 79.0108 10.5886 75.5289 11.0008C79.1964 8.80642 81.9408 5.35342 83.2508 1.28533C79.8036 3.33177 76.0313 4.77281 72.0977 5.54599C70.4542 3.79305 68.4683 2.39631 66.2629 1.44232C64.0575 0.488325 61.6797 -0.0025841 59.2768 1.02293e-05C49.5769 1.02293e-05 41.7116 7.86311 41.7116 17.5652C41.7116 18.9406 41.8672 20.2826 42.1674 21.5691C27.5687 20.8363 14.6266 13.8427 5.96293 3.21441C4.40084 5.89519 3.58001 8.94326 3.58465 12.0459C3.58235 14.9379 4.29444 17.7857 5.65766 20.3362C7.02088 22.8867 8.99302 25.061 11.3988 26.6658C8.60994 26.5773 5.88252 25.824 3.44344 24.4688C3.44122 24.5422 3.44122 24.6145 3.44122 24.6901C3.44122 33.198 9.49532 40.2973 17.5296 41.9128C14.9426 42.6132 12.2302 42.7158 9.59761 42.213C11.8325 49.19 18.3191 54.2701 26.0054 54.4124C19.7833 59.2953 12.0999 61.9437 4.19061 61.9319C2.77299 61.9319 1.37538 61.8497 0 61.6862C8.03136 66.8466 17.3786 69.5856 26.9249 69.576C59.2334 69.576 76.901 42.8123 76.901 19.6033C76.901 18.8428 76.8832 18.0834 76.8498 17.3284C80.2905 14.8444 83.2595 11.7654 85.6169 8.2367Z" fill="white"/>
</svg>
