<svg width="87" height="87" viewBox="0 0 87 87" fill="none" xmlns="http://www.w3.org/2000/svg">
<path fill-rule="evenodd" clip-rule="evenodd" d="M2.9 0C2.13087 0 1.39325 0.305535 0.84939 0.84939C0.305535 1.39325 0 2.13087 0 2.9L0 66.7C0 67.4691 0.305535 68.2067 0.84939 68.7506C1.39325 69.2944 2.13087 69.6 2.9 69.6H14.5V84.1C14.5 84.6544 14.6588 85.1971 14.9578 85.664C15.2567 86.1309 15.6832 86.5023 16.1868 86.7342C16.6903 86.9661 17.2497 87.0489 17.7988 86.9726C18.348 86.8964 18.8637 86.6643 19.285 86.304L38.773 69.6H66.7C67.0811 69.6007 67.4586 69.5262 67.8109 69.3809C68.1632 69.2356 68.4834 69.0223 68.7532 68.7532L86.1532 51.3532C86.4223 51.0834 86.6356 50.7632 86.7809 50.4109C86.9262 50.0586 87.0007 49.6811 87 49.3V2.9C87 2.13087 86.6945 1.39325 86.1506 0.84939C85.6067 0.305535 84.8691 0 84.1 0L2.9 0ZM58 46.4V17.4H63.8V46.4H58ZM40.6 17.4V46.4H46.4V17.4H40.6Z" fill="white"/>
</svg>
