<svg width="50" height="50" viewBox="0 0 87 61" fill="none" xmlns="http://www.w3.org/2000/svg">
<path d="M85.084 9.55988C84.5897 7.72603 83.6237 6.05361 82.2822 4.70908C80.9408 3.36456 79.2705 2.39481 77.4378 1.89638C70.6422 0.0304083 43.4554 3.29648e-05 43.4554 3.29648e-05C43.4554 3.29648e-05 16.273 -0.0303442 9.47307 1.75318C7.64148 2.27455 5.97468 3.25801 4.63267 4.60913C3.29067 5.96026 2.31852 7.63368 1.80957 9.46875C0.017365 16.2644 6.35795e-06 30.359 6.35795e-06 30.359C6.35795e-06 30.359 -0.0173514 44.523 1.76183 51.2491C2.75991 54.9681 5.68905 57.9059 9.41231 58.9083C16.2774 60.7743 43.3903 60.8047 43.3903 60.8047C43.3903 60.8047 70.5771 60.835 77.3727 59.0559C79.2061 58.5583 80.8779 57.5908 82.2227 56.249C83.5676 54.9072 84.5388 53.2376 85.0406 51.4054C86.8371 44.6141 86.8501 30.5239 86.8501 30.5239C86.8501 30.5239 86.9369 16.3555 85.084 9.55988ZM34.7591 43.4164L34.7808 17.3796L57.3765 30.4197L34.7591 43.4164Z" fill="white"/>
</svg>
