<svg width="51" height="36" viewBox="0 0 51 36" fill="none" xmlns="http://www.w3.org/2000/svg">
<path d="M49.9625 5.66002C49.6723 4.57427 49.105 3.5841 48.3173 2.78806C47.5296 1.99202 46.5488 1.41787 45.4726 1.12277C41.4821 0.0180036 25.5177 1.95171e-05 25.5177 1.95171e-05C25.5177 1.95171e-05 9.55574 -0.0179656 5.56272 1.03799C4.48719 1.34667 3.50842 1.92893 2.72037 2.72888C1.93233 3.52883 1.36147 4.51959 1.0626 5.60607C0.010197 9.62947 3.73348e-06 17.9743 3.73348e-06 17.9743C3.73348e-06 17.9743 -0.010189 26.3603 1.03457 30.3426C1.62066 32.5444 3.34069 34.2837 5.52704 34.8772C9.55829 35.982 25.4794 36 25.4794 36C25.4794 36 41.4439 36.018 45.4344 34.9646C46.511 34.67 47.4927 34.0972 48.2824 33.3028C49.0721 32.5083 49.6424 31.5199 49.937 30.435C50.992 26.4142 50.9996 18.0719 50.9996 18.0719C50.9996 18.0719 51.0506 9.68342 49.9625 5.66002ZM20.4111 25.7051L20.4238 10.2898L33.6923 18.0103L20.4111 25.7051Z" fill="black"/>
</svg>
